<?xml version="1.0" encoding="iso-8859-1"?>
<!-- Uploaded to: SVG Repo, www.svgrepo.com, Generator: SVG Repo Mixer Tools -->
<!DOCTYPE svg PUBLIC "-//W3C//DTD SVG 1.1//EN" "http://www.w3.org/Graphics/SVG/1.1/DTD/svg11.dtd">
<svg fill="#000000" height="800px" width="800px" version="1.1" id="Capa_1" xmlns="http://www.w3.org/2000/svg" xmlns:xlink="http://www.w3.org/1999/xlink" 
	 viewBox="0 0 466.971 466.971" xml:space="preserve">
<g>
	<path d="M311.728,258.701c-1.07-2.843-4.243-4.277-7.086-3.208c-2.898,1.092-6.213,0.576-8.641-1.349
		c-6.251-4.953-14.808-5.662-21.746-1.931c-1.359,0.594-2.621,1.469-3.682,2.639c-4.019,4.43-3.686,11.28,0.745,15.299
		c4.43,4.019,11.28,3.686,15.299-0.744c1.69-1.863,2.601-4.154,2.771-6.483c3.514,2.706,7.816,4.127,12.159,4.127
		c2.354,0,4.72-0.415,6.974-1.264C311.362,264.716,312.799,261.543,311.728,258.701z"/>
	<path d="M193.256,252.119c-6.907-3.617-15.362-2.883-21.557,2.025c-2.43,1.923-5.742,2.442-8.642,1.349
		c-2.844-1.072-6.016,0.365-7.086,3.208c-1.071,2.842,0.365,6.015,3.207,7.086c2.255,0.849,4.618,1.264,6.974,1.264
		c4.358,0,8.678-1.43,12.2-4.156c0.164,2.338,1.076,4.641,2.773,6.512c4.019,4.43,10.869,4.764,15.299,0.744
		c4.43-4.019,4.764-10.869,0.745-15.299C196.048,253.616,194.703,252.711,193.256,252.119z"/>
	<path d="M243.846,316.637c-2.791,2.679-6.473,4.155-10.365,4.155c-3.887,0-7.564-1.476-10.355-4.155
		c-2.192-2.104-5.673-2.033-7.776,0.159c-2.104,2.191-2.032,5.673,0.159,7.776c4.85,4.655,11.232,7.219,17.973,7.219
		c6.746,0,13.133-2.564,17.982-7.219c2.191-2.104,2.263-5.585,0.159-7.776C249.519,314.605,246.037,314.533,243.846,316.637z"/>
	<path d="M398.585,68.386C354.485,24.287,295.852,0,233.485,0s-121,24.287-165.1,68.386C24.287,112.486,0,171.119,0,233.485
		s24.287,121,68.386,165.099c44.1,44.1,102.733,68.386,165.1,68.386s121-24.287,165.1-68.386
		c44.099-44.1,68.386-102.733,68.386-165.099S442.684,112.486,398.585,68.386z M101.633,412.741
		c11.362-19.671,27.06-36.594,45.659-49.417c22.577,27.997,53.725,43.955,86.21,43.955c32.696,0,63.856-15.91,86.239-43.821
		c18.559,12.815,34.228,29.694,45.58,49.297c-37.98,28.054-83.741,43.216-131.835,43.216
		C185.384,455.971,139.616,440.804,101.633,412.741z M110.176,210.617c0-17.756,3.857-35.314,11.192-51.335
		c1.175,1.512,2.413,2.969,3.728,4.356c0.301,0.317,0.978,0.994,1.821,1.797c-1.672,4.216-3.027,8.608-4.03,13.15
		c-0.654,2.966,1.219,5.902,4.186,6.557c0.399,0.088,0.798,0.13,1.19,0.13c2.524,0,4.799-1.749,5.366-4.315
		c6.94-31.435,33.137-54.654,65.185-57.777c3.023-0.295,5.235-2.984,4.94-6.008c-0.294-3.023-3.002-5.229-6.007-4.94
		c-3.493,0.34-6.925,0.891-10.284,1.636c-2.685-4.751-6.015-9.176-9.881-13.215c17.155-8.685,36.237-13.257,55.634-13.257
		c19.548,0,38.761,4.639,56.018,13.455c-3.837,4.046-7.1,8.44-9.703,13.023c-3.367-0.747-6.807-1.301-10.309-1.642
		c-3.016-0.289-5.713,1.917-6.007,4.94c-0.295,3.023,1.917,5.713,4.94,6.008c32.048,3.124,58.244,26.343,65.186,57.777
		c0.567,2.567,2.842,4.315,5.366,4.315c0.393,0,0.792-0.042,1.19-0.13c2.967-0.655,4.84-3.59,4.186-6.557
		c-1.003-4.544-2.359-8.937-4.032-13.154c0.822-0.772,1.5-1.448,1.828-1.794c1.272-1.342,2.473-2.748,3.614-4.207
		c7.29,15.97,11.123,33.489,11.123,51.187c0,3.67-0.178,7.337-0.5,10.976l-1.084-0.787c-6.726-4.877-14.262-8.944-22.404-12.089
		c-8.124-3.128-16.724-5.292-25.562-6.433c-31.515-4.073-57.699-22.427-66.707-46.758l-1.049-2.834
		c-0.799-2.158-2.856-3.591-5.157-3.591c-0.001,0-0.001,0-0.001,0c-2.301,0-4.358,1.432-5.157,3.59l-1.051,2.837
		c-4.403,11.903-12.91,22.563-24.604,30.827c-11.864,8.391-26.424,13.9-42.105,15.931c-17.881,2.318-34.465,8.723-47.959,18.525
		l-2.5,1.816C110.394,218.638,110.176,214.624,110.176,210.617z M176.577,117.068c-5.689,2.086-11.098,4.752-16.146,7.945
		c-6.745-15.484-16.12-27.633-23.843-35.936C153.763,93.837,168.247,103.86,176.577,117.068z M131.99,154.874
		c-11.828-13.441-18.8-37.771-10.099-64.897c7.642,7.058,21.189,21.531,29.412,41.707
		C143.58,138.154,137.024,145.991,131.99,154.874z M315.668,131.684c8.198-20.1,21.762-34.608,29.414-41.692
		c8.696,27.113,1.725,51.44-10.1,64.884C329.948,145.993,323.391,138.155,315.668,131.684z M306.54,125.014
		c-5.04-3.188-10.439-5.85-16.118-7.935c3.023-4.749,6.936-9.236,11.557-13.19c7.948-6.806,17.701-11.844,28.401-14.809
		C322.658,97.383,313.284,109.531,306.54,125.014z M306.839,343.035c3.878-3.646,7.596-7.6,11.133-11.852
		c12.292-14.778,21.627-32.245,27.624-51.312c1.813,0.102,3.615,0.031,5.39-0.201v95.968
		C338.234,362.42,323.293,351.346,306.839,343.035z M233.12,362.471c-28.8,0-55.992-13.684-76.567-38.53
		c-20.819-25.142-32.44-58.711-32.721-94.528c-0.007-0.774-0.145-1.523-0.381-2.231c11.3-7.298,24.75-12.116,39.199-13.989
		c17.454-2.26,33.722-8.436,47.042-17.858c10.535-7.445,18.86-16.649,24.472-26.975c12.896,23.556,39.882,40.747,71.495,44.833
		c7.969,1.029,15.713,2.977,23.013,5.788c5.23,2.02,10.166,4.467,14.748,7.291c-0.633,1.132-1.002,2.425-1.018,3.79
		c-0.416,35.676-12.096,69.09-32.888,94.087C288.961,348.862,261.83,362.471,233.12,362.471z M233.12,373.471
		c23.236,0,45.468-7.907,64.584-22.652c4.346,2.029,8.584,4.266,12.706,6.691c-20.222,24.711-47.952,38.767-76.908,38.767
		c-28.75,0-56.465-14.101-76.872-38.895c3.935-2.31,7.975-4.448,12.113-6.395C187.81,365.628,209.962,373.471,233.12,373.471z
		 M358.09,265.232c-2.781,2.119-6.041,3.358-9.446,3.628c2.697-11.228,4.279-22.916,4.673-34.849
		c7.767,2.832,12.843,10.845,11.698,19.32C364.371,258.093,361.912,262.32,358.09,265.232z M112.934,234.292
		c0.408,11.812,1.979,23.374,4.644,34.493c-3.132-0.382-6.12-1.59-8.696-3.553c-3.822-2.913-6.281-7.139-6.925-11.902
		C100.847,245.117,105.571,237.346,112.934,234.292z M120.653,279.904c5.965,18.951,15.23,36.325,27.428,51.053
		c3.654,4.413,7.505,8.501,11.524,12.264c-16.248,8.268-31.006,19.246-43.62,32.332v-95.892
		C117.524,279.863,119.083,279.951,120.653,279.904z M390.807,390.806c-5.355,5.355-10.938,10.4-16.722,15.133
		c-3.645-6.161-7.693-12.061-12.099-17.672v-112.42c0.951-0.567,1.878-1.185,2.771-1.866c6.159-4.693,10.122-11.504,11.158-19.179
		c1.335-9.888-2.59-19.381-9.605-25.602c0.85-6.115,1.307-12.347,1.307-18.584c0-21.671-5.278-43.102-15.259-62.168
		c9.8-19.934,10.225-46.001,0.226-69.889c-0.902-2.157-3.076-3.5-5.404-3.367c-18.402,1.112-35.722,7.412-49.241,17.825
		c-19.737-10.881-42.025-16.621-64.722-16.621c-22.567,0-44.749,5.681-64.402,16.443c-13.288-10.106-30.508-16.528-49.028-17.647
		c-2.323-0.129-4.503,1.21-5.405,3.368c-9.962,23.819-9.566,49.794,0.144,69.699c-10.045,19.133-15.349,40.614-15.349,62.358
		c0,6.264,0.441,12.551,1.303,18.737c-6.906,6.221-10.749,15.637-9.424,25.448c1.036,7.674,4.999,14.485,11.158,19.179
		c0.891,0.679,1.823,1.281,2.771,1.846v112.367c-4.414,5.627-8.468,11.547-12.117,17.73c-5.778-4.729-11.354-9.769-16.704-15.119
		C34.143,348.784,11,292.913,11,233.485c0-59.428,23.143-115.299,65.164-157.321C118.187,34.143,174.058,11,233.485,11
		s115.299,23.143,157.321,65.165c42.021,42.021,65.164,97.893,65.164,157.321C455.971,292.913,432.828,348.784,390.807,390.806z"/>
</g>
</svg>