<svg viewBox="0 0 14 14" xmlns="http://www.w3.org/2000/svg"><path d="m4.3946066 12.634694c-1.99259-1.00313-3.22525-2.86791-3.38015-5.11351-.20144002-2.92049 1.72152-5.618 4.54186-6.37129.8042-.21479001 2.27152-.19171001 3.04247.0478 2.3380604.72654 3.9247104 2.55065 4.3296504 4.97763.26409 1.58283-.21677 3.46222-1.2104 4.73068-.55263.70549-.63357.70179-.63357-.029 0-.67475-.20819-2.39022-.36155-2.97918-.25566-.98182-.52182-1.57054-1.5596404-3.44983-.58318-1.05604-1.04371-1.63767-1.29667-1.63767-.377 0-.58997.53782-.74664 1.8855-.0574.49332-.14429.97172-.1932 1.0631-.0489.0914-.32153.28066-.60584.42062-.61906.30476-.78128.29381-1.69249-.11426-.81994-.36719-1.33567-.44972-1.55724-.24921-.3524.31892-.13544 1.05728.6117 2.08175 1.0758 1.47513 1.49938 2.71814 1.45591 4.27243l-.0231.82735-.72106-.363z"/></svg>