<?xml version="1.0" encoding="iso-8859-1"?>
<!-- Uploaded to: SVG Repo, www.svgrepo.com, Generator: SVG Repo Mixer Tools -->
<!DOCTYPE svg PUBLIC "-//W3C//DTD SVG 1.1//EN" "http://www.w3.org/Graphics/SVG/1.1/DTD/svg11.dtd">
<svg fill="#000000" height="800px" width="800px" version="1.1" id="Capa_1" xmlns="http://www.w3.org/2000/svg" xmlns:xlink="http://www.w3.org/1999/xlink" 
	 viewBox="0 0 28.688 28.688" xml:space="preserve">
<path d="M24.968,3.894l-8.413,1.647l3.028-2.233c0.123-0.092,0.155-0.259,0.073-0.389C18.551,1.166,16.603,0,14.379,0
	C12.154,0,10.206,1.166,9.1,2.919C9.02,3.048,9.052,3.215,9.174,3.308l3.054,2.252L3.72,3.894C3.175,3.785,2.652,4.141,2.546,4.683
	C2.44,5.225,2.793,5.75,3.335,5.856l7.599,1.488C7.9,8.671,5.777,11.695,5.777,15.219v6.5c0,0.569,0.462,1.031,1.031,1.031h0.817
	c1.16,3.495,3.748,5.938,6.753,5.938c3.005,0,5.593-2.443,6.753-5.938h0.802c0.569,0,1.031-0.462,1.031-1.031v-6.5
	c0-3.529-2.13-6.559-5.173-7.882l7.561-1.481c0.542-0.106,0.895-0.632,0.789-1.174C26.035,4.141,25.512,3.785,24.968,3.894z
	 M14.379,26.688c-2.981,0-5.406-3.606-5.406-8.039c0-0.967,0.121-1.89,0.332-2.749c1.185,0.746,3.015,1.226,5.074,1.226
	s3.889-0.48,5.074-1.226c0.211,0.859,0.333,1.782,0.333,2.749C19.785,23.081,17.36,26.688,14.379,26.688z"/>
</svg>