<?xml version="1.0" standalone="no"?>
<!DOCTYPE svg PUBLIC "-//W3C//DTD SVG 20010904//EN"
 "http://www.w3.org/TR/2001/REC-SVG-20010904/DTD/svg10.dtd">
<svg version="1.0" xmlns="http://www.w3.org/2000/svg"
 width="3873.000000pt" height="3439.000000pt" viewBox="0 0 3873.000000 3439.000000"
 preserveAspectRatio="xMidYMid meet">

<g transform="translate(0.000000,3439.000000) scale(0.100000,-0.100000)"
fill="#000000" stroke="none">
<path d="M33147 29078 c-14 -13 -116 -133 -228 -268 -946 -1137 -1838 -2119
-2804 -3086 -613 -614 -933 -915 -1455 -1373 -2417 -2119 -4491 -3099 -6010
-2841 -470 80 -869 280 -1148 576 -77 81 -96 95 -112 88 -10 -5 -61 -65 -113
-134 -523 -691 -1829 -2024 -3693 -3770 -656 -616 -1893 -1751 -1929 -1772 -7
-5 -93 33 -207 92 -260 133 -525 239 -803 319 l-70 20 -34 173 c-77 403 -206
835 -348 1166 -394 927 -1010 1533 -1818 1792 -247 79 -463 113 -737 115
l-206 2 -79 50 c-191 122 -363 209 -558 281 -242 91 -506 151 -539 123 -24
-20 -20 -34 38 -124 182 -282 362 -655 466 -967 73 -221 133 -484 167 -735 25
-189 25 -706 0 -895 -67 -497 -225 -988 -439 -1363 l-45 -79 -909 -500 c-500
-275 -917 -507 -926 -515 -25 -22 -111 -231 -178 -433 -70 -212 -129 -442
-165 -650 -14 -85 -29 -164 -31 -175 -3 -11 -55 -57 -117 -102 -334 -245 -802
-697 -1132 -1093 -805 -967 -1304 -2072 -1444 -3200 -36 -285 -44 -416 -44
-722 -1 -310 1 -328 43 -328 9 0 87 34 173 75 791 379 1706 743 2298 914 341
99 705 152 723 105 16 -41 4 -546 -20 -849 l-7 -90 134 -119 c1674 -1487 3698
-2513 6034 -3061 1254 -294 2623 -443 3865 -421 502 8 994 40 1026 67 8 6 14
22 14 34 0 20 -21 34 -128 90 -507 267 -1179 739 -1679 1179 -846 745 -1479
1623 -1771 2456 l-40 116 91 74 c133 108 477 456 587 592 52 65 97 118 100
118 3 0 33 -54 68 -118 200 -377 475 -784 745 -1106 142 -168 438 -465 592
-592 619 -512 1281 -792 2065 -876 147 -16 599 -15 755 1 543 56 1095 202
1617 427 207 89 512 244 684 347 201 120 234 144 234 170 0 45 -11 47 -250 47
-1139 0 -1914 336 -2227 966 -26 52 -44 97 -41 100 4 3 102 0 220 -7 1028 -59
2119 190 3163 721 877 447 1695 1058 2520 1884 550 550 1017 1103 1437 1696
233 330 259 381 198 388 -15 2 -138 -49 -320 -132 -1011 -460 -1913 -802
-2689 -1021 -90 -25 -165 -44 -167 -42 -2 2 85 58 194 125 1528 935 2866 2145
3939 3562 922 1219 1662 2617 2102 3975 74 227 171 577 171 615 0 35 -24 56
-49 44 -11 -5 -133 -111 -273 -235 -1129 -1005 -2184 -1836 -3148 -2479 l-155
-103 211 209 c213 212 360 372 540 589 1227 1481 2365 3824 3318 6832 291 918
576 1951 771 2796 55 239 57 248 40 267 -23 25 -28 25 -58 -2z m-131 -518
c-231 -958 -542 -2039 -876 -3040 -956 -2871 -2085 -5091 -3284 -6460 -369
-421 -807 -817 -1181 -1067 -187 -125 -791 -445 -1110 -588 -664 -297 -1210
-464 -1760 -536 -203 -27 -594 -32 -760 -10 -399 51 -742 184 -1008 388 -76
58 -204 180 -259 245 -35 43 -39 50 -27 66 13 15 12 16 -3 4 -14 -12 -21 -7
-56 40 -37 51 -96 150 -137 233 -35 69 -48 63 -197 -91 -129 -132 -305 -297
-513 -479 -162 -142 -696 -587 -700 -583 -2 2 2 40 10 83 48 271 -21 573 -175
766 -168 210 -472 362 -834 415 -162 24 -460 15 -656 -19 -713 -125 -1421
-417 -2225 -917 -172 -107 -766 -500 -1025 -679 -162 -111 -176 -119 -195
-106 -11 8 -88 60 -171 116 l-151 101 386 351 c1994 1814 3717 3482 4623 4475
260 285 555 635 653 775 14 20 17 18 102 -64 154 -148 296 -246 498 -344 824
-402 1920 -317 3200 250 1053 466 2268 1294 3545 2416 523 459 853 770 1445
1363 684 684 1201 1237 1898 2029 120 136 220 247 222 247 1 0 -8 -51 -21
-112 -172 -800 -531 -1573 -1195 -2574 -1025 -1546 -2234 -3029 -3501 -4295
-640 -639 -1292 -1185 -1890 -1580 -301 -199 -440 -254 -617 -247 -85 3 -105
8 -171 39 -111 53 -226 145 -406 324 -176 175 -329 361 -461 558 -92 137 -112
157 -154 157 -52 0 -74 -31 -99 -137 -66 -289 -231 -804 -365 -1143 -173 -436
-441 -992 -634 -1312 -13 -21 -20 -38 -17 -38 3 0 71 98 150 218 382 575 720
1270 932 1915 32 97 61 177 64 177 3 0 42 -53 87 -117 263 -378 599 -712 818
-813 114 -54 171 -65 310 -64 236 3 412 78 827 352 628 416 1224 911 1871
1555 1051 1046 2050 2268 2914 3562 804 1206 1236 2064 1442 2865 63 242 116
538 122 675 2 47 7 55 74 130 77 86 472 551 619 728 49 59 90 106 92 104 2 -1
-30 -140 -70 -307z m-1235 -7712 c-245 -849 -660 -1808 -1162 -2689 -1220
-2141 -2954 -3904 -5089 -5176 -315 -187 -301 -181 -483 -218 -822 -170 -1495
-172 -1937 -8 -448 167 -697 467 -742 896 -10 95 -14 108 -32 113 -12 3 -78
-17 -151 -45 -115 -44 -446 -150 -563 -181 -24 -6 -51 -14 -60 -17 -13 -5 -12
-1 5 23 72 102 116 246 116 384 0 180 -59 326 -183 451 -85 85 -161 129 -307
178 -165 55 -245 65 -483 65 -515 -2 -982 -96 -1525 -309 -304 -119 -638 -279
-1172 -561 -141 -74 -260 -136 -266 -137 -8 -2 -30 77 -88 312 -3 9 98 88 271
213 2158 1562 3718 2786 4395 3449 l170 167 48 -82 c76 -131 142 -213 276
-346 154 -153 271 -238 462 -333 329 -166 664 -240 1094 -240 328 0 615 38
980 128 1241 307 2756 1146 4485 2484 299 231 905 720 1128 911 118 100 215
180 217 178 5 -4 -256 -393 -398 -593 -651 -917 -1379 -1717 -2322 -2550 -664
-586 -1510 -1226 -2356 -1781 -376 -247 -1035 -656 -1168 -726 -71 -37 -125
-38 -164 -1 -15 16 -137 208 -270 427 -133 220 -258 416 -277 437 -46 48 -105
67 -160 50 -104 -31 -236 -208 -480 -641 -73 -129 -157 -275 -187 -325 -218
-359 -554 -729 -901 -993 -112 -85 -122 -94 -67 -62 314 186 661 489 898 785
124 155 182 239 342 495 81 129 178 278 215 330 83 116 197 250 213 250 15 0
-2 28 242 -405 115 -203 225 -396 247 -427 91 -135 222 -179 378 -125 115 39
815 455 1321 784 605 394 1043 712 1604 1164 1076 865 2027 1884 2692 2881
236 354 606 980 606 1025 0 7 97 98 216 202 119 104 261 229 316 279 55 49
101 88 103 87 2 -2 -19 -81 -47 -177z m-21207 -354 c65 -19 174 -57 240 -85
726 -304 1272 -832 1641 -1584 232 -474 372 -948 464 -1575 16 -107 27 -197
25 -199 -2 -2 -67 -10 -145 -17 -509 -48 -1068 -227 -1541 -492 -579 -324
-1082 -791 -1458 -1352 -539 -805 -801 -1800 -730 -2775 108 -1483 869 -2758
2062 -3458 226 -134 329 -163 537 -154 226 9 389 74 543 216 295 272 383 765
223 1246 -18 55 -32 100 -31 100 0 1 38 -2 83 -5 l82 -5 320 -268 320 -268 27
-82 c143 -435 419 -956 743 -1402 214 -295 438 -552 732 -840 317 -310 606
-543 979 -790 810 -536 1734 -916 2812 -1154 165 -37 527 -104 656 -122 74
-10 88 -15 70 -22 -40 -15 -948 -21 -1258 -8 -314 13 -639 34 -885 57 -2926
271 -5555 1279 -7625 2923 -370 294 -672 557 -666 581 28 94 32 978 6 1235
-18 186 -56 371 -180 875 -223 911 -303 1366 -341 1938 -13 210 -7 780 11 937
55 500 143 867 301 1271 33 83 65 158 72 167 6 8 422 241 922 516 l910 500 38
58 c53 83 168 317 225 463 135 340 225 708 264 1080 18 175 15 586 -6 760 -70
589 -248 1109 -561 1644 -41 71 -75 131 -75 134 0 7 69 -8 194 -44z m1304
-415 c368 -39 786 -191 1092 -394 672 -447 1131 -1175 1400 -2221 43 -167 113
-495 106 -501 -2 -2 -57 7 -122 21 -378 79 -787 107 -1200 82 l-121 -8 -7 64
c-4 35 -18 137 -32 228 -142 925 -455 1679 -935 2250 -108 129 -317 336 -426
424 -40 32 -73 60 -73 62 0 8 225 4 318 -7z m1997 -3109 c267 -29 485 -70 720
-135 1176 -326 2158 -1136 2704 -2231 498 -1000 585 -2158 244 -3229 -172
-540 -491 -1102 -859 -1514 -684 -765 -1550 -1248 -2532 -1411 -73 -13 -134
-21 -136 -19 -2 2 -44 65 -93 139 -249 374 -440 743 -573 1105 -72 197 -74
177 23 209 112 38 310 133 415 202 819 531 1118 1575 701 2453 -95 200 -195
345 -349 505 -222 230 -475 391 -772 491 -149 50 -214 57 -264 26 -64 -39 -81
-135 -35 -199 23 -33 28 -35 190 -87 135 -43 292 -120 418 -204 110 -74 282
-235 368 -346 568 -729 427 -1779 -313 -2335 -108 -81 -288 -180 -408 -226
-99 -37 -285 -85 -299 -76 -7 4 -83 66 -169 139 l-156 131 53 7 c239 29 444
111 628 249 411 309 588 864 433 1358 -141 452 -537 790 -1003 859 -133 19
-374 7 -493 -25 -258 -69 -493 -220 -652 -418 -165 -205 -251 -418 -277 -683
-10 -106 -10 -116 10 -159 46 -105 194 -109 245 -8 7 15 16 70 20 122 15 236
105 438 270 609 90 93 169 150 288 206 137 65 244 88 403 89 201 0 365 -49
529 -158 101 -67 237 -207 295 -305 131 -217 173 -494 112 -736 -25 -97 -104
-260 -166 -343 -104 -138 -273 -264 -430 -321 -127 -46 -218 -61 -367 -61 -73
0 -150 -5 -171 -11 l-38 -10 -179 150 c-99 83 -187 151 -198 151 -23 0 -42
-19 -42 -42 0 -10 32 -53 71 -95 173 -189 312 -472 365 -739 24 -120 25 -388
1 -491 -45 -196 -115 -331 -232 -448 -130 -130 -263 -192 -460 -217 -108 -13
-221 -1 -323 33 -111 37 -402 214 -609 371 -768 580 -1335 1501 -1537 2499
-79 388 -101 640 -93 1044 6 292 19 431 63 675 193 1067 772 2015 1619 2650
624 468 1315 733 2090 801 72 6 171 15 220 19 117 11 601 4 730 -10z m2935
-907 l0 -548 -57 65 c-147 168 -383 394 -554 531 l-57 46 192 130 c105 72 254
174 331 226 77 53 141 96 143 97 1 0 2 -246 2 -547z m810 -933 c367 -12 1421
-8 1490 5 29 6 9 -12 -115 -105 -217 -164 -862 -636 -1135 -833 l-234 -168
-27 78 c-92 273 -273 653 -429 902 -49 79 -90 145 -90 145 0 1 39 -2 88 -5 48
-4 251 -13 452 -19z m-9422 -1217 c-21 -200 -17 -838 6 -1081 10 -106 17 -195
15 -196 -2 -2 -60 -32 -129 -66 -467 -233 -926 -573 -1268 -937 -564 -601
-951 -1305 -1192 -2169 -45 -159 -49 -172 -45 -114 2 36 7 106 10 155 4 50 13
149 21 220 159 1380 834 2685 1955 3780 224 219 621 556 636 541 3 -2 -1 -62
-9 -133z m20341 -50 c-80 -118 -295 -413 -406 -555 -1051 -1347 -2262 -2410
-3488 -3061 -804 -427 -1588 -671 -2435 -759 -143 -15 -817 -18 -972 -5 l-97
9 -16 51 c-52 172 -73 480 -45 662 12 77 11 80 -10 97 -13 11 -39 18 -64 18
-95 0 -381 42 -694 102 l-162 31 63 27 c116 49 181 92 268 179 99 99 147 179
180 296 12 44 24 87 26 95 3 8 4 62 3 120 -3 242 -82 444 -237 610 -211 225
-500 335 -1008 385 -574 55 -1168 56 -1545 0 -52 -8 -95 -13 -97 -12 -1 2 2
44 8 94 5 50 13 157 17 238 l7 148 340 64 c779 146 1814 359 2445 505 624 143
1154 286 1465 394 88 30 167 58 176 60 14 5 18 -8 29 -77 52 -356 273 -653
614 -826 166 -83 361 -142 596 -178 143 -23 542 -31 740 -16 655 50 1461 243
2390 573 285 101 770 288 999 384 96 40 177 71 180 69 9 -9 -338 -344 -429
-415 -199 -153 -422 -290 -790 -487 -351 -188 -773 -417 -1030 -560 -1067
-590 -1674 -838 -2272 -928 -142 -22 -173 -20 -196 10 -28 35 -34 53 -122 363
-44 156 -87 294 -96 307 -31 47 -126 71 -177 43 -12 -6 -137 -106 -277 -223
-318 -263 -397 -324 -534 -413 -164 -107 -261 -152 -352 -163 -42 -6 -145 -24
-228 -40 -197 -40 -313 -46 -436 -24 -161 28 -169 27 -57 -9 184 -60 274 -65
577 -30 69 8 152 14 186 14 47 0 82 8 150 36 220 88 437 225 834 527 91 69
168 123 171 119 4 -4 35 -122 69 -262 86 -343 120 -410 240 -463 130 -58 642
38 1126 211 383 137 909 404 1574 797 824 488 1239 747 1464 918 171 129 405
366 544 551 l112 149 188 82 c103 45 266 118 362 163 96 44 176 80 178 81 1 1
-21 -34 -49 -76z m-10254 -1052 c-3 -3 -103 -23 -223 -46 l-217 -41 -7 41 c-3
22 -7 76 -7 120 -1 109 -17 271 -43 445 -11 80 -22 156 -22 169 -1 21 27 39
259 161 l260 137 3 -490 c1 -270 0 -493 -3 -496z m-325 -1267 c0 -425 -3 -535
-12 -532 -7 3 -100 29 -205 59 -107 30 -191 58 -189 64 21 48 122 369 145 462
27 106 68 310 86 420 6 41 7 42 58 51 29 5 67 10 85 11 l32 1 0 -536z m-98
-598 c1317 -374 2447 -637 3011 -700 64 -7 119 -15 121 -17 2 -2 0 -31 -5 -64
-31 -246 18 -589 120 -825 154 -358 467 -660 861 -830 383 -167 792 -249 1338
-268 l194 -7 -64 -37 c-75 -44 -140 -54 -431 -67 -269 -13 -612 2 -932 40
-411 48 -1088 155 -1136 179 -49 25 -70 61 -115 199 -73 219 -166 313 -350
351 -44 9 -98 10 -209 4 -358 -21 -485 -8 -667 71 -142 61 -392 250 -382 290
49 207 15 390 -109 579 -122 187 -302 330 -637 507 -286 150 -516 277 -660
362 -145 86 -340 214 -340 223 0 15 44 104 51 104 4 0 158 -43 341 -94z m-452
-513 l-1 -358 -42 46 c-23 26 -79 87 -124 136 l-81 89 76 131 c42 72 97 172
122 222 24 50 45 91 47 91 2 0 3 -161 3 -357z m-5077 104 c-4 -6 -12 -3 -20 8
-20 28 -16 41 7 20 11 -10 17 -22 13 -28z m-6313 -869 l0 -603 -208 -96 c-114
-52 -208 -92 -210 -87 -12 29 99 524 168 748 58 188 232 640 246 640 2 0 4
-271 4 -602z m11588 60 c275 -299 526 -566 558 -594 178 -153 315 -222 484
-243 227 -29 427 74 520 267 19 39 38 72 41 72 3 0 27 -31 53 -69 96 -141 272
-284 436 -352 140 -59 205 -70 460 -79 271 -10 320 -20 378 -78 31 -31 43 -57
76 -161 49 -161 81 -226 134 -279 82 -82 152 -103 522 -156 819 -117 1418
-112 1880 14 41 12 84 23 95 26 41 11 -136 -83 -315 -167 -983 -459 -1952
-617 -2830 -459 -1221 220 -2255 1071 -3020 2488 l-83 153 54 79 c30 44 55 79
55 80 1 0 227 -244 502 -542z m-1463 -685 c362 -956 1046 -1845 2050 -2668
314 -257 782 -585 1137 -795 97 -58 175 -106 173 -108 -5 -5 -283 34 -490 69
-1575 266 -2913 857 -3951 1744 -237 202 -554 524 -759 770 -87 105 -226 287
-222 291 2 2 66 15 143 29 627 114 1256 377 1746 730 62 45 115 80 117 79 2
-2 27 -65 56 -141z"/>
<path d="M13745 15163 c-211 -243 -296 -439 -298 -683 -3 -310 105 -445 284
-355 115 58 220 203 285 390 25 71 28 94 28 205 -1 147 -16 219 -74 335 -37
75 -106 171 -135 188 -10 5 -37 -20 -90 -80z"/>
<path d="M12567 14942 c-127 -205 -167 -327 -167 -512 0 -201 72 -373 167
-396 102 -26 246 134 299 331 56 211 -5 444 -157 598 -37 37 -72 67 -77 67 -6
0 -35 -39 -65 -88z"/>
<path d="M14971 14730 c-297 -41 -553 -234 -691 -521 -40 -85 -70 -204 -70
-282 0 -90 41 -171 100 -202 65 -34 218 -7 353 61 235 119 424 348 525 636 39
109 85 278 79 285 -22 21 -206 35 -296 23z"/>
<path d="M11705 14507 c-93 -196 -100 -370 -20 -526 41 -82 90 -101 151 -59
92 63 152 250 123 386 -15 72 -48 147 -87 195 -33 41 -99 97 -114 97 -5 0 -29
-42 -53 -93z"/>
<path d="M15521 13694 c-264 -54 -527 -297 -539 -498 -3 -51 0 -67 20 -96 40
-60 85 -75 223 -73 98 1 136 6 208 27 159 47 288 128 414 259 72 75 213 259
213 278 0 14 -104 67 -175 89 -92 29 -261 35 -364 14z"/>
<path d="M12190 13556 c-521 -160 -946 -527 -1180 -1019 -310 -655 -235 -1403
200 -1990 144 -193 359 -384 572 -507 108 -62 163 -72 217 -42 68 37 91 130
49 192 -14 20 -60 54 -118 87 -347 198 -630 542 -750 911 -62 192 -74 276 -75
512 0 185 3 231 23 327 119 591 553 1077 1117 1252 126 40 141 48 165 87 42
68 16 165 -53 197 -46 22 -76 21 -167 -7z"/>
<path d="M15810 12614 c-129 -23 -251 -78 -327 -148 -64 -58 -93 -110 -93
-165 0 -78 92 -136 265 -168 151 -28 300 -2 470 81 114 56 255 148 255 167 0
6 -26 37 -58 68 -65 63 -169 123 -258 146 -60 16 -208 27 -254 19z"/>
<path d="M15795 11681 c-84 -24 -161 -68 -201 -115 -66 -77 -58 -126 26 -168
111 -56 235 -60 380 -12 72 24 240 119 247 140 5 15 -65 82 -116 112 -57 33
-163 62 -226 61 -27 0 -77 -8 -110 -18z"/>
</g>
</svg>
