<?xml version="1.0" encoding="iso-8859-1"?>
<!-- Uploaded to: SVG Repo, www.svgrepo.com, Generator: SVG Repo Mixer Tools -->
<svg height="800px" width="800px" version="1.1" id="Layer_1" xmlns="http://www.w3.org/2000/svg" xmlns:xlink="http://www.w3.org/1999/xlink" 
	 viewBox="0 0 512.001 512.001" xml:space="preserve">
<path style="fill:#FF738D;" d="M483.099,161.159c9.312,0,16.862-7.55,16.862-16.862s-7.55-16.862-16.862-16.862h-48.549V86.693
	h48.549c9.312,0,16.862-7.55,16.862-16.862s-7.55-16.862-16.862-16.862l-88.396,0.005c-31.535,0-56.466,24.93-56.466,56.465v292.075
	c0,31.535,25.565,57.1,57.1,57.1h7.51v0.407h80.253c9.312,0,16.862-7.55,16.862-16.862c0-9.312-7.55-16.862-16.862-16.862h-48.549
	v-40.742h48.549c9.312,0,16.862-7.55,16.862-16.862s-7.55-16.862-16.862-16.862h-48.549v-40.742h48.549
	c9.312,0,16.862-7.55,16.862-16.862s-7.55-16.862-16.862-16.862h-48.549v-40.742h48.549c9.312,0,16.862-7.55,16.862-16.862
	s-7.55-16.862-16.862-16.862h-48.549v-40.742h48.549V161.159z"/>
<path d="M483.099,173.198c15.936,0,28.901-12.965,28.901-28.901s-12.965-28.901-28.901-28.901h-36.512V98.732h36.512
	c15.936,0,28.901-12.965,28.901-28.901s-12.965-28.901-28.901-28.901l-88.395,0.005c-18.468,0-35.717,7.079-48.571,19.934
	c-12.854,12.855-19.934,30.103-19.934,48.571v292.075c0,33.126,23.422,60.873,54.571,67.581c0.173,0.042,0.344,0.087,0.521,0.12
	c4.537,0.94,9.234,1.437,14.046,1.437h4.393c0.994,0.266,2.038,0.407,3.117,0.407H483.1c15.936,0,28.901-12.965,28.901-28.901
	S499.036,413.26,483.1,413.26h-36.512v-16.664H483.1c15.936,0,28.901-12.965,28.901-28.901c0-15.936-12.965-28.901-28.901-28.901
	h-36.512V322.13H483.1c15.936,0,28.901-12.965,28.901-28.901c0-15.936-12.965-28.901-28.901-28.901h-36.512v-16.664H483.1
	c15.936,0,28.901-12.965,28.901-28.901s-12.965-28.901-28.901-28.901h-36.512v-16.664L483.099,173.198L483.099,173.198z
	 M434.548,213.94h48.551c2.659,0,4.823,2.163,4.823,4.823s-2.163,4.823-4.823,4.823h-48.551c-6.649,0-12.039,5.39-12.039,12.039
	v40.742c0,6.649,5.39,12.039,12.039,12.039h48.551c2.659,0,4.823,2.163,4.823,4.823c0,2.659-2.163,4.823-4.823,4.823h-48.551
	c-6.649,0-12.039,5.39-12.039,12.039v40.742c0,6.649,5.39,12.039,12.039,12.039h48.551c2.659,0,4.823,2.163,4.823,4.823
	s-2.163,4.823-4.823,4.823h-48.551c-6.649,0-12.039,5.39-12.039,12.039v40.742c0,6.649,5.39,12.039,12.039,12.039h48.551
	c2.659,0,4.823,2.163,4.823,4.823s-2.163,4.823-4.823,4.823h-77.136c-0.994-0.266-2.038-0.407-3.117-0.407h-7.219V150.892
	c0-6.649-5.39-12.039-12.039-12.039c-6.649,0-12.039,5.39-12.039,12.039v288.869c-12.76-7.965-21.273-22.126-21.273-38.245V109.441
	c0-24.912,19.514-44.427,44.427-44.427l88.395-0.005c2.659,0,4.823,2.163,4.823,4.823c0,2.659-2.163,4.823-4.823,4.823h-48.551
	c-6.649,0-12.039,5.39-12.039,12.039v40.742c0,6.649,5.39,12.039,12.039,12.039h48.551c2.659,0,4.823,2.163,4.823,4.823
	c0,2.659-2.163,4.823-4.823,4.823h-48.551c-6.649,0-12.039,5.39-12.039,12.039v40.742
	C422.509,208.551,427.899,213.94,434.548,213.94z"/>
<path d="M383.596,126.818c-0.795,0-1.577-0.084-2.36-0.241c-0.771-0.157-1.529-0.385-2.251-0.686
	c-0.722-0.301-1.433-0.674-2.083-1.108s-1.276-0.939-1.83-1.493c-0.554-0.554-1.059-1.168-1.493-1.83
	c-0.433-0.65-0.807-1.348-1.108-2.083c-0.301-0.722-0.53-1.481-0.686-2.251c-0.157-0.77-0.241-1.565-0.241-2.348
	s0.084-1.577,0.241-2.36c0.156-0.758,0.385-1.517,0.686-2.251c0.301-0.722,0.674-1.421,1.108-2.071
	c0.433-0.662,0.939-1.276,1.493-1.83c0.554-0.554,1.18-1.059,1.83-1.505c0.65-0.433,1.36-0.807,2.083-1.108
	c0.722-0.301,1.481-0.53,2.251-0.686c1.553-0.313,3.154-0.313,4.707,0c0.771,0.157,1.529,0.385,2.251,0.686
	c0.722,0.301,1.421,0.674,2.071,1.108c0.662,0.445,1.276,0.951,1.83,1.505c0.566,0.554,1.059,1.168,1.505,1.83
	c0.433,0.65,0.807,1.348,1.108,2.071c0.301,0.734,0.53,1.493,0.686,2.251c0.157,0.783,0.229,1.577,0.229,2.36
	s-0.072,1.577-0.229,2.348s-0.385,1.529-0.686,2.251c-0.301,0.734-0.674,1.433-1.108,2.083c-0.445,0.662-0.939,1.276-1.505,1.83
	c-0.554,0.554-1.168,1.059-1.83,1.493c-0.65,0.433-1.348,0.807-2.071,1.108c-0.722,0.301-1.481,0.53-2.251,0.686
	C385.16,126.734,384.377,126.818,383.596,126.818z"/>
<g>
	<path style="fill:#FFC674;" d="M119.009,347.908c-28.822-22.519-70.444-17.408-92.962,11.414
		c-22.519,28.822-17.408,70.444,11.414,92.962c28.822,22.519,70.444,17.408,92.962-11.414
		C152.942,412.047,147.832,370.426,119.009,347.908z M97.219,414.928c-4.599,5.887-11.535,9.263-19.03,9.263
		c-3.762,0-9.381-0.886-14.786-5.111c-5.071-3.962-8.296-9.661-9.08-16.048s0.966-12.698,4.928-17.768
		c4.599-5.887,11.535-9.263,19.03-9.263c3.762,0,9.381,0.886,14.786,5.111c5.071,3.962,8.296,9.661,9.08,16.048
		C102.931,403.548,101.181,409.858,97.219,414.928z"/>
	<path style="fill:#FFC674;" d="M265.18,359.323c-22.519-28.822-64.14-33.934-92.962-11.414
		c-28.822,22.519-33.933,64.14-11.414,92.962c22.519,28.822,64.14,33.933,92.962,11.414
		C282.589,429.766,287.699,388.145,265.18,359.323z M227.825,419.081c-5.406,4.223-11.024,5.111-14.785,5.111l0,0
		c-7.497,0-14.434-3.376-19.032-9.263c-3.962-5.071-5.712-11.38-4.928-17.768c0.784-6.387,4.009-12.086,9.08-16.048
		c5.406-4.223,11.024-5.111,14.786-5.111c7.495,0,14.431,3.376,19.03,9.263C240.155,395.732,238.293,410.903,227.825,419.081z"/>
</g>
<g>
	<path style="fill:#6D529F;" d="M133.159,342.094l53.719-46.656L62.273,45.665l-26.387,60.111
		c-14.694,33.472-11.69,72.072,8.003,102.869L133.159,342.094z"/>
	<path style="fill:#6D529F;" d="M144.105,363.384l-39.755-67.945L228.953,45.665l26.387,60.111
		c14.694,33.472,11.69,72.072-8.003,102.869L144.105,363.384z"/>
</g>
<path d="M100.479,371.625c-8.106-6.334-16.545-7.663-22.199-7.663c-11.226,0-21.621,5.062-28.517,13.889
	c-5.942,7.604-8.567,17.068-7.391,26.647c1.176,9.578,6.012,18.126,13.617,24.067c8.106,6.334,16.545,7.663,22.199,7.663
	c11.226,0,21.62-5.064,28.517-13.889c5.942-7.604,8.567-17.068,7.391-26.647C112.92,386.114,108.084,377.567,100.479,371.625z
	 M87.733,407.516C87.733,407.516,87.732,407.517,87.733,407.516c-2.302,2.947-5.78,4.636-9.543,4.636
	c-2.721,0-5.202-0.861-7.374-2.558c-2.538-1.982-4.151-4.834-4.544-8.028c-0.392-3.195,0.483-6.352,2.466-8.89
	c2.302-2.946,5.779-4.635,9.542-4.635c2.721,0,5.202,0.861,7.374,2.558c2.538,1.982,4.151,4.834,4.544,8.028
	C90.59,401.823,89.715,404.979,87.733,407.516z"/>
<path d="M274.667,351.91L274.667,351.91c-22.343-28.597-60.745-37.419-92.623-23.703l75.307-112.881
	c0.043-0.065,0.085-0.13,0.128-0.195c21.911-34.264,25.232-76.953,8.885-114.194l-26.387-60.111
	c-1.878-4.276-6.059-7.081-10.728-7.197c-4.69-0.112-8.983,2.481-11.069,6.661l-72.567,145.463L73.046,40.29
	c-2.085-4.179-6.354-6.761-11.069-6.661c-4.669,0.114-8.851,2.919-10.728,7.197l-26.387,60.111
	c-16.348,37.241-13.026,79.93,8.885,114.194c0.045,0.07,0.09,0.138,0.136,0.207l75.564,112.96
	c-12.681-5.538-26.655-7.616-40.751-5.886c-20.75,2.547-39.266,13.024-52.136,29.498c-26.57,34.008-20.518,83.292,13.49,109.862
	c13.9,10.859,30.664,16.603,48.028,16.603c3.216,0,6.454-0.197,9.696-0.596c20.75-2.547,39.266-13.024,52.136-29.497
	c2.101-2.688,3.99-5.495,5.703-8.382c1.713,2.887,3.602,5.693,5.703,8.382c15.416,19.731,38.472,30.049,61.76,30.049
	c16.851,0,33.825-5.407,48.102-16.561C295.185,435.203,301.237,385.919,274.667,351.91z M228.257,74.03l16.06,36.585
	c13.091,29.821,10.449,63.998-7.062,91.449l-92.482,138.624l-26.742-45.706L228.257,74.03z M53.968,202.058
	c-17.507-27.45-20.147-61.625-7.057-91.443l16.06-36.585l69.189,138.694l-30.354,60.847L53.968,202.058z M120.937,433.459
	c-8.911,11.407-21.73,18.659-36.096,20.423c-14.366,1.765-28.56-2.173-39.966-11.083c-11.407-8.911-18.659-21.732-20.423-36.098
	c-1.764-14.366,2.172-28.56,11.084-39.966c8.911-11.407,21.73-18.659,36.096-20.423c2.245-0.276,4.487-0.412,6.713-0.412
	c12.022,0,23.63,3.978,33.253,11.495c11.407,8.911,18.659,21.732,20.423,36.098C133.785,407.859,129.848,422.053,120.937,433.459z
	 M246.354,442.799c-23.545,18.396-57.668,14.205-76.065-9.34c-8.911-11.406-12.847-25.6-11.083-39.966
	c1.764-14.366,9.017-27.186,20.423-36.098c9.624-7.518,21.231-11.495,33.253-11.495c2.226,0,4.468,0.136,6.713,0.412
	c14.367,1.764,27.186,9.017,36.098,20.423l0,0C274.089,390.281,269.9,424.403,246.354,442.799z"/>
<path d="M212.946,363.963c-5.653,0-14.093,1.329-22.199,7.662c-7.605,5.942-12.441,14.49-13.617,24.068
	c-1.176,9.579,1.448,19.043,7.39,26.647c6.896,8.828,17.29,13.891,28.519,13.891c5.652,0,14.092-1.329,22.197-7.663l0,0
	c7.597-5.935,12.429-14.483,13.605-24.069c1.177-9.587-1.443-19.049-7.379-26.646C234.568,369.025,224.173,363.963,212.946,363.963z
	 M224.944,401.564c-0.394,3.202-2.002,6.054-4.531,8.029l0,0c-2.172,1.697-4.653,2.558-7.374,2.558
	c-3.765,0-7.244-1.689-9.546-4.636c-1.982-2.535-2.858-5.693-2.466-8.888c0.392-3.195,2.006-6.046,4.544-8.029
	c2.172-1.698,4.653-2.558,7.374-2.558c3.763,0,7.241,1.689,9.543,4.636C224.466,395.205,225.336,398.362,224.944,401.564z"/>
<path d="M150.662,292.964c-1.855,0-3.737-0.43-5.501-1.338c-5.911-3.043-8.237-10.303-5.194-16.214l55.881-108.549
	c3.043-5.911,10.304-8.235,16.214-5.194c5.911,3.043,8.237,10.303,5.194,16.214l-55.881,108.549
	C159.24,290.582,155.028,292.964,150.662,292.964z"/>
<path d="M223.079,152.305c-0.783,0-1.577-0.084-2.348-0.241c-0.77-0.156-1.529-0.385-2.251-0.686
	c-0.722-0.301-1.433-0.674-2.083-1.108c-0.662-0.433-1.276-0.939-1.83-1.493c-2.239-2.239-3.527-5.345-3.527-8.512
	c0-0.795,0.084-1.577,0.241-2.36c0.157-0.77,0.385-1.517,0.686-2.251c0.301-0.722,0.674-1.421,1.108-2.071
	c0.433-0.662,0.939-1.276,1.493-1.83c0.554-0.566,1.168-1.059,1.83-1.505c0.65-0.433,1.36-0.807,2.083-1.108
	c0.722-0.301,1.481-0.53,2.251-0.686c1.553-0.313,3.154-0.313,4.707,0c0.77,0.157,1.529,0.385,2.251,0.686
	c0.722,0.301,1.421,0.674,2.071,1.108c0.662,0.445,1.276,0.939,1.842,1.505c0.554,0.554,1.047,1.168,1.493,1.83
	c0.433,0.65,0.807,1.348,1.108,2.071c0.301,0.734,0.53,1.481,0.686,2.251c0.157,0.783,0.229,1.565,0.229,2.36
	c0,3.166-1.276,6.272-3.515,8.512c-0.566,0.554-1.18,1.059-1.842,1.493c-0.65,0.433-1.348,0.807-2.071,1.108
	c-0.722,0.301-1.481,0.53-2.251,0.686C224.656,152.22,223.874,152.305,223.079,152.305z"/>
</svg>