<svg xmlns="http://www.w3.org/2000/svg" viewBox="0 0 16 16" width="512px" height="512px">
  <path d="M 7.5 1 C 3.9160694 1 1 3.916072 1 7.5 C 1 11.083928 3.9160694 14 7.5 14 C 11.083931 14 14 11.083928 14 7.5 C 14 3.916072 11.083931 1 7.5 1 z M 7.5 2 C 10.543491 2 13 4.4565112 13 7.5 C 13 8.8858001 12.486648 10.145412 11.644531 11.111328 C 11.636806 10.346197 11.582808 9.4132166 11.398438 8.6054688 C 10.996318 6.8399208 10.291093 5.8088507 10.017578 5.2832031 C 9.7413397 4.752412 9.4821079 4.3138304 9.1816406 3.9804688 C 8.8811734 3.6471069 8.4699374 3.3781508 7.9980469 3.4492188 C 7.7595457 3.4846251 7.5252628 3.6278695 7.3828125 3.8125 C 7.2403622 3.9971305 7.169977 4.2035389 7.1230469 4.4238281 C 7.0291865 4.8644067 7.0312751 5.3897502 7.0625 6.0546875 A 0.50005 0.50005 0 0 0 7.0625 6.0566406 C 7.06142 6.0339396 7.0667295 6.0597002 7.0078125 6.1289062 C 6.9488925 6.1981098 6.8382166 6.2886723 6.7148438 6.359375 C 6.5914708 6.4300777 6.4542319 6.4823408 6.3652344 6.5039062 C 6.3277182 6.512997 6.3097162 6.5020696 6.3027344 6.4980469 C 5.9677661 6.2906454 5.4952388 6.0299058 4.9863281 5.8828125 C 4.7062171 5.8018504 4.4176289 5.7455193 4.0996094 5.8183594 C 3.7815899 5.8911995 3.4519151 6.1959906 3.3710938 6.5605469 C 3.2297999 7.1959606 3.5127572 7.7629245 3.7949219 8.2734375 C 4.0770865 8.7839505 4.4170498 9.2519583 4.5605469 9.4882812 L 4.5585938 9.4882812 C 5.2860282 10.687187 5.2705399 11.393385 5.234375 12.509766 C 3.3264697 11.647738 2 9.7341287 2 7.5 C 2 4.4565112 4.4565091 2 7.5 2 z M 8.1660156 4.4511719 C 8.1964716 4.4491019 8.2574616 4.4506416 8.4375 4.6503906 C 8.6302827 4.8642788 8.8720979 5.2469317 9.1308594 5.7441406 C 9.4713445 6.3984931 10.057947 7.2197258 10.423828 8.8261719 A 0.50005 0.50005 0 0 0 10.423828 8.828125 C 10.664536 9.8826929 10.650845 11.483723 10.621094 12.029297 C 9.7347539 12.640354 8.6608946 13 7.5 13 C 7.059841 13 6.6345588 12.942808 6.2246094 12.845703 C 6.2565352 11.517873 6.3191004 10.460369 5.4140625 8.96875 C 5.2205596 8.6500731 4.9107572 8.2267526 4.6699219 7.7910156 C 4.4337029 7.3636309 4.3278577 6.9475961 4.3535156 6.796875 C 4.4029146 6.791495 4.5315548 6.792465 4.7089844 6.84375 C 5.0950124 6.9553259 5.6063797 7.2314726 5.8789062 7.40625 C 6.1897459 7.6051397 6.3948256 7.5261851 6.5996094 7.4765625 C 6.8043931 7.4269405 7.0101854 7.3416098 7.2109375 7.2265625 C 7.4116896 7.1115157 7.6069195 6.9683304 7.7695312 6.7773438 C 7.932143 6.5863569 8.0756261 6.3250138 8.0605469 6.0078125 C 8.0307718 5.3737498 8.0459228 4.8920308 8.1015625 4.6308594 C 8.1255095 4.5184542 8.1524036 4.4742082 8.1660156 4.4511719 z" fill="#FFB300" />
</svg>
