<svg xmlns="http://www.w3.org/2000/svg"  viewBox="0 0 48 48" width="240px" height="240px" baseProfile="basic"><linearGradient id="5JUJlgHynNtfglqXBnhBMa" x1="23.807" x2="23.807" y1="43.334" y2="4.998" gradientUnits="userSpaceOnUse"><stop offset="0" stop-color="#c09"/><stop offset=".147" stop-color="#d10089"/><stop offset=".432" stop-color="#df0061"/><stop offset=".824" stop-color="#f5001f"/><stop offset="1" stop-color="red"/></linearGradient><path fill="url(#5JUJlgHynNtfglqXBnhBMa)" d="M40.03,5.874c-0.065-0.514-0.514-0.916-1.031-0.873c0,0-24.377,0.888-24.458,0.881	c-0.267-0.034-0.514,0.056-0.71,0.214l-8.435,4.601c-0.358,0.195-0.562,0.59-0.514,0.996l3.653,30.759	c0.039,0.329,0.239,0.618,0.534,0.771c0.144,0.074,0.302,0.111,0.459,0.111c0.165,0,0.33-0.041,0.479-0.122l3.775-2.06l3.861,1.889	c0.38,0.186,0.835,0.112,1.137-0.183l3.235-3.152l3.878,1.981c0.372,0.188,0.824,0.129,1.132-0.154l3.081-2.831l4.115,1.764	c0.387,0.166,0.835,0.071,1.122-0.233l2.577-2.737l3.378,1.608c0.308,0.147,0.667,0.128,0.956-0.052	c0.289-0.178,0.468-0.491,0.475-0.83C42.92,28.74,40.148,6.803,40.03,5.874z M12.197,17.732l1.46-4.809	c0.07-0.232,0.408-0.2,0.433,0.041l2.936,27.548l-2.21-1.081L12.197,17.732z M8.041,11.533l3.513-1.916	c0.446-0.243,0.962,0.177,0.815,0.663l-1.627,5.359l-2.855-3.232C7.646,12.133,7.721,11.707,8.041,11.533z M7.725,15.244	l2.498,2.828l2.575,21.339l-2.452,1.337L7.338,15.417C7.313,15.201,7.581,15.08,7.725,15.244z M38.122,35.376	c-0.393-0.187-0.861-0.099-1.159,0.218l-2.596,2.759L30.3,36.609c-0.362-0.155-0.781-0.084-1.071,0.183l-3.044,2.798l-3.898-1.991	c-0.382-0.195-0.845-0.125-1.152,0.174l-2.165,2.109L15.663,8.856c-0.054-0.51,0.334-0.959,0.847-0.979l20.833-0.81	c0.461-0.018,0.858,0.315,0.913,0.773c0.619,5.119,2.391,20.442,2.479,28.78L38.122,35.376z M36,23c0,1.105-0.895,2-2,2	c-1.104,0-2-0.895-2-2c0-1.105,0.896-2,2-2C35.105,21,36,21.895,36,23z M25,25c0,1.105-0.895,2-2,2c-1.104,0-2-0.895-2-2	c0-1.105,0.896-2,2-2C24.105,23,25,23.895,25,25z M34.709,28.692c-0.281,0.774-0.989,1.753-2.64,2.753c0,0-2.499,1.25-5.575,0	c-0.931-0.378-1.455-0.903-1.749-1.396c-0.31-0.52,0.183-1.145,0.768-0.991c0.805,0.212,2.033,0.419,3.672,0.369	c1.895-0.057,3.516-0.87,4.514-1.515C34.233,27.567,34.926,28.095,34.709,28.692z"/></svg>